<svg xmlns="http://www.w3.org/2000/svg" width="484" height="493" viewBox="0 0 484 493" fill="none"><path d="M325.374 202.57C294.764 208.567 268.979 228.403 238.334 234.197C225.081 236.702 210.478 236.655 198.13 230.617C192.963 228.089 188.533 224.649 184.709 220.615C183.452 222.493 181.975 224.151 180.277 225.588C182.878 228.286 185.736 230.747 188.891 232.897C214.962 250.648 248.796 240.338 274.98 228.714C291.99 221.162 308.713 212.551 327.127 208.942C331.295 208.124 329.531 201.755 325.371 202.57H325.374Z" fill="black"></path><path d="M97.0862 394.283C97.0233 392.812 95.8793 391.559 94.3622 391.559C92.9353 391.559 91.5754 392.806 91.6382 394.283C92.1725 406.931 91.4434 419.639 89.3605 432.127C87.2505 444.793 83.8413 457.246 79.1959 469.216C76.6291 475.831 73.6494 482.277 70.3199 488.542C69.6305 489.841 69.9909 491.505 71.2963 492.27C72.5284 492.991 74.3304 492.597 75.024 491.294C81.1572 479.751 86.1043 467.562 89.7419 455.005C93.3983 442.379 95.7242 429.36 96.7216 416.254C97.2769 408.945 97.3942 401.607 97.0841 394.283H97.0862Z" fill="#231F20"></path><path d="M123.166 410.35C191.189 410.35 246.332 355.189 246.332 287.146C246.332 219.102 191.189 163.941 123.166 163.941C55.1433 163.941 0 219.102 0 287.146C0 355.189 55.1433 410.35 123.166 410.35Z" fill="#F69C91"></path><path d="M277.612 292.142C250.05 306.747 231.11 333.201 203.455 347.619C191.494 353.855 177.504 358.041 163.936 355.836C149.69 353.52 138.234 344.377 128.979 333.76C116.945 319.956 108.268 303.353 103.399 285.728C102.265 281.626 95.9433 283.542 97.0769 287.642C101.611 304.06 109.352 319.623 119.872 333.029C129.285 345.022 140.912 356.039 155.754 360.694C185.845 370.135 215.245 350.468 236.945 331.759C251.041 319.606 264.556 306.518 281.137 297.732C284.889 295.743 281.357 290.157 277.612 292.142Z" fill="black"></path><path d="M170.786 267.192C185.893 268.278 199.067 256.876 200.152 241.774C200.232 240.667 199.4 239.705 198.292 239.625C197.185 239.546 196.224 240.378 196.144 241.485C195.218 254.377 183.972 264.111 171.075 263.183C158.18 262.254 148.441 251.011 149.369 238.12C149.449 237.014 148.617 236.052 147.508 235.972C146.402 235.892 145.44 236.725 145.361 237.831C144.275 252.933 155.682 266.104 170.788 267.19L170.786 267.192Z" fill="black"></path><path d="M180.462 235.587C179.984 235.87 179.416 236.013 178.823 235.954C177.325 235.816 176.227 234.489 176.368 232.993L177.134 224.803C177.273 223.307 178.601 222.202 180.095 222.349C181.593 222.487 182.691 223.814 182.551 225.311L181.784 233.5C181.7 234.401 181.185 235.158 180.462 235.587Z" fill="#221F1F"></path><path d="M166.513 235.724C166.035 236.007 165.469 236.147 164.874 236.09C163.376 235.952 162.278 234.625 162.418 233.129L163.185 224.938C163.321 223.443 164.644 222.341 166.146 222.483C167.644 222.621 168.742 223.948 168.602 225.445L167.835 233.636C167.751 234.537 167.236 235.294 166.513 235.724Z" fill="#221F1F"></path><path d="M268.352 289.096L482 2" stroke="black" stroke-width="3" stroke-miterlimit="10" stroke-linecap="round"></path><path d="M127.205 476.576C127.187 481.843 127.019 487.106 126.784 492.367C127.991 492.174 129.23 492.099 130.501 492.147C131.088 492.147 131.669 492.172 132.245 492.214C132.813 479.546 132.98 466.844 131.601 454.226C130.692 445.917 129.167 437.661 126.606 429.694C124.02 421.654 120.37 414.018 115.957 406.826C110.956 398.675 105.122 391.081 99.2804 383.523C98.3794 382.358 96.3762 382.576 95.4291 383.523C94.2787 384.674 94.526 386.208 95.4291 387.375C105.332 400.188 115.199 413.408 120.586 428.851C125.927 444.163 127.262 460.457 127.205 476.574V476.576Z" fill="#231F20"></path></svg>